<svg width="26" height="26" viewBox="0 0 26 26" fill="none" xmlns="http://www.w3.org/2000/svg">
<circle cx="13" cy="13" r="12" fill="white"/>
<circle cx="13" cy="13" r="12.5" stroke="#7C7C7C" stroke-opacity="0.5"/>
<path d="M13.3986 16.3762C16.0127 16.3762 18.3894 16.0311 20.1212 15.4665C20.9857 15.1847 21.7032 14.8437 22.2098 14.4532C22.713 14.0653 23.045 13.5981 23.045 13.0642C23.045 12.5302 22.713 12.063 22.2098 11.6752C21.7032 11.2847 20.9857 10.9437 20.1212 10.6618C18.3894 10.0973 16.0127 9.75215 13.3986 9.75215C10.7844 9.75215 8.40767 10.0973 6.67595 10.6618C5.81145 10.9437 5.0939 11.2847 4.58728 11.6752C4.0841 12.063 3.75215 12.5302 3.75215 13.0642C3.75215 13.5981 4.0841 14.0653 4.58728 14.4532C5.0939 14.8437 5.81145 15.1847 6.67595 15.4665C8.40767 16.0311 10.7844 16.3762 13.3986 16.3762Z" stroke="#FAB104" stroke-width="0.49569"/>
</svg>
